<svg xmlns="http://www.w3.org/2000/svg" viewBox="0 0 512 512"><!--!Font Awesome Free 6.7.2 by @fontawesome - https://fontawesome.com License - https://fontawesome.com/license/free Copyright 2025 Fonticons, Inc.--><path d="M114.6 76.1a45.7 45.7 0 0 0 -67.5-6.4c-17.6 16.2-19 43.5-4.8 62.8l91.8 123L41.8 379.6c-14.2 19.3-13.1 46.6 4.7 62.8A45.7 45.7 0 0 0 114 435.9L242.9 262.7a12.1 12.1 0 0 0 0-14.2zM470.2 379.6 377.9 255.5l91.8-123c14.2-19.3 12.8-46.6-4.8-62.8a45.7 45.7 0 0 0 -67.5 6.4l-128 172.1a12.1 12.1 0 0 0 0 14.2L398 435.9a45.7 45.7 0 0 0 67.5 6.4C483.4 426.2 484.5 398.8 470.2 379.6z"/></svg>